<svg version="1.1"
      xmlns="http://www.w3.org/2000/svg"
      xmlns:xlink="http://www.w3.org/1999/xlink"  id="snapshot-76690" width="250" height="250" viewBox="0 0 250 250"><desc>This image was made on Patterninja.com</desc><defs>
<!-- image 44239 -->
<g id="transformed-44239" data-image="44239" transform="translate(120.43377808221236, -95.4762219177876) rotate(359, 102.28622191778764, 102.2862219177876)"><g><svg version="1.1" width="204.57244383557529px" height="204.5724438355752px" viewBox="0 0 204.57244383557529 204.5724438355752"><g id="original-44239"><svg xmlns="http://www.w3.org/2000/svg" viewBox="0 0 62 62" xmlns:xlink="http://www.w3.org/1999/xlink" version="1.1" preserveAspectRatio="xMidYMid meet">
  <circle cx="31" cy="31" r="31" fill-rule="evenodd" fill="rgba(27, 36, 13, 0.9244186046511628)" stroke="none"/>
  <path fill-rule="evenodd" d="M32 61.984c-.332.01-.665.016-1 .016C13.88 62 0 48.12 0 31 0 13.88 13.88 0 31 0c.335 0 .668.005 1 .016v61.968z" fill="rgba(0, 0, 0, 1)" stroke="none"/>
  <path fill-rule="evenodd" d="M22 24.544c0-2.268 1.786-3.2 3.968-2.062l18.371 9.546c2.183 1.134 2.183 2.99 0 4.124L25.969 45.7C23.787 46.833 22 45.9 22 43.636V24.544z" fill="rgba(209, 209, 209, 1)" stroke="none"/>
  <path fill-rule="evenodd" d="M22 21.544c0-2.268 1.786-3.2 3.968-2.062l18.371 9.546c2.183 1.134 2.183 2.99 0 4.124L25.969 42.7C23.787 43.833 22 42.9 22 40.636V21.544z" fill="rgba(255, 255, 255, 1)" stroke="none"/>
</svg>
</g></svg></g></g>
<!-- /image 44239 -->
</defs><rect x="0" y="0" width="250" height="250" fill="rgba(22, 22, 22, 1)"></rect><use xlink:href="#transformed-44239" transform="translate(-250, -250)"></use><use xlink:href="#transformed-44239" transform="translate(0, -250)"></use><use xlink:href="#transformed-44239" transform="translate(250, -250)"></use><use xlink:href="#transformed-44239" transform="translate(-250, 0)"></use><use xlink:href="#transformed-44239" transform="translate(0, 0)"></use><use xlink:href="#transformed-44239" transform="translate(250, 0)"></use><use xlink:href="#transformed-44239" transform="translate(-250, 250)"></use><use xlink:href="#transformed-44239" transform="translate(0, 250)"></use><use xlink:href="#transformed-44239" transform="translate(250, 250)"></use></svg>